<?xml version="1.0" encoding="UTF-8" standalone="no"?>
<!DOCTYPE svg PUBLIC "-//W3C//DTD SVG 1.1//EN"
 "http://www.w3.org/Graphics/SVG/1.1/DTD/svg11.dtd">
<!-- Generated by graphviz version 7.1.0 (0)
 -->
<!-- Pages: 1 -->
<svg width="532pt" height="223pt"
 viewBox="0.00 0.00 531.89 223.48" xmlns="http://www.w3.org/2000/svg" xmlns:xlink="http://www.w3.org/1999/xlink">
<g id="graph0" class="graph" transform="scale(1 1) rotate(0) translate(4 219.48)">
<polygon fill="white" stroke="none" points="-4,4 -4,-219.48 527.89,-219.48 527.89,4 -4,4"/>
<!-- knowledge in 
 philosophy -->
<g id="node1" class="node">
<title>knowledge in 
 philosophy</title>
<ellipse fill="none" stroke="black" cx="68.89" cy="-188.61" rx="66.44" ry="26.74"/>
<text text-anchor="middle" x="68.89" y="-192.41" font-family="Times,serif" font-size="14.00">knowledge in </text>
<text text-anchor="middle" x="68.89" y="-177.41" font-family="Times,serif" font-size="14.00"> philosophy</text>
</g>
<!-- problem solving -->
<g id="node2" class="node">
<title>problem solving</title>
<ellipse fill="none" stroke="red" cx="68.89" cy="-98.87" rx="68.79" ry="18"/>
<text text-anchor="middle" x="68.89" y="-95.17" font-family="Times,serif" font-size="14.00">problem solving</text>
</g>
<!-- knowledge in 
 philosophy&#45;&gt;problem solving -->
<g id="edge1" class="edge">
<title>knowledge in 
 philosophy&#45;&gt;problem solving</title>
<path fill="none" stroke="black" d="M68.89,-161.76C68.89,-151.33 68.89,-139.25 68.89,-128.55"/>
<polygon fill="black" stroke="black" points="72.39,-128.73 68.89,-118.73 65.39,-128.73 72.39,-128.73"/>
</g>
<!-- job promotion -->
<g id="node3" class="node">
<title>job promotion</title>
<ellipse fill="none" stroke="black" cx="68.89" cy="-18" rx="61.99" ry="18"/>
<text text-anchor="middle" x="68.89" y="-14.3" font-family="Times,serif" font-size="14.00">job promotion</text>
</g>
<!-- problem solving&#45;&gt;job promotion -->
<g id="edge2" class="edge">
<title>problem solving&#45;&gt;job promotion</title>
<path fill="none" stroke="black" d="M68.89,-80.76C68.89,-71.11 68.89,-58.8 68.89,-47.72"/>
<polygon fill="black" stroke="black" points="72.39,-47.87 68.89,-37.87 65.39,-47.87 72.39,-47.87"/>
</g>
<!-- support network -->
<g id="node4" class="node">
<title>support network</title>
<ellipse fill="lightgrey" stroke="red" cx="248.89" cy="-188.61" rx="68.49" ry="18"/>
<text text-anchor="middle" x="248.89" y="-184.91" font-family="Times,serif" font-size="14.00">support network</text>
</g>
<!-- wedding 
 size -->
<g id="node5" class="node">
<title>wedding 
 size</title>
<ellipse fill="none" stroke="black" cx="225.89" cy="-98.87" rx="47.25" ry="26.74"/>
<text text-anchor="middle" x="225.89" y="-102.67" font-family="Times,serif" font-size="14.00">wedding </text>
<text text-anchor="middle" x="225.89" y="-87.67" font-family="Times,serif" font-size="14.00"> size</text>
</g>
<!-- support network&#45;&gt;wedding 
 size -->
<g id="edge3" class="edge">
<title>support network&#45;&gt;wedding 
 size</title>
<path fill="none" stroke="black" d="M244.35,-170.28C241.83,-160.66 238.6,-148.33 235.54,-136.67"/>
<polygon fill="black" stroke="black" points="239,-136.07 233.08,-127.29 232.23,-137.85 239,-136.07"/>
</g>
<!-- marital 
 satisf. -->
<g id="node6" class="node">
<title>marital 
 satisf.</title>
<ellipse fill="none" stroke="black" cx="332.89" cy="-98.87" rx="41.94" ry="26.74"/>
<text text-anchor="middle" x="332.89" y="-102.67" font-family="Times,serif" font-size="14.00">marital </text>
<text text-anchor="middle" x="332.89" y="-87.67" font-family="Times,serif" font-size="14.00"> satisf.</text>
</g>
<!-- support network&#45;&gt;marital 
 satisf. -->
<g id="edge4" class="edge">
<title>support network&#45;&gt;marital 
 satisf.</title>
<path fill="none" stroke="black" d="M265.09,-170.69C276.07,-159.23 290.88,-143.76 303.86,-130.2"/>
<polygon fill="black" stroke="black" points="306.22,-132.79 310.61,-123.15 301.17,-127.95 306.22,-132.79"/>
</g>
<!-- genetics -->
<g id="node7" class="node">
<title>genetics</title>
<ellipse fill="none" stroke="black" cx="387.89" cy="-188.61" rx="39.79" ry="18"/>
<text text-anchor="middle" x="387.89" y="-184.91" font-family="Times,serif" font-size="14.00">genetics</text>
</g>
<!-- health -->
<g id="node8" class="node">
<title>health</title>
<ellipse fill="none" stroke="red" cx="454.89" cy="-98.87" rx="32.49" ry="18"/>
<text text-anchor="middle" x="454.89" y="-95.17" font-family="Times,serif" font-size="14.00">health</text>
</g>
<!-- genetics&#45;&gt;health -->
<g id="edge5" class="edge">
<title>genetics&#45;&gt;health</title>
<path fill="none" stroke="black" d="M400.5,-171.11C410.38,-158.16 424.32,-139.91 435.61,-125.13"/>
<polygon fill="black" stroke="black" points="438.37,-127.28 441.66,-117.21 432.81,-123.03 438.37,-127.28"/>
</g>
<!-- lifestyle -->
<g id="node9" class="node">
<title>lifestyle</title>
<ellipse fill="none" stroke="black" cx="484.89" cy="-188.61" rx="38.99" ry="18"/>
<text text-anchor="middle" x="484.89" y="-184.91" font-family="Times,serif" font-size="14.00">lifestyle</text>
</g>
<!-- lifestyle&#45;&gt;health -->
<g id="edge6" class="edge">
<title>lifestyle&#45;&gt;health</title>
<path fill="none" stroke="black" d="M479.11,-170.69C474.94,-158.51 469.23,-141.8 464.4,-127.68"/>
<polygon fill="black" stroke="black" points="467.8,-126.8 461.25,-118.47 461.18,-129.06 467.8,-126.8"/>
</g>
</g>
</svg>
