<?xml version="1.0" encoding="UTF-8" standalone="no"?>
<!DOCTYPE svg PUBLIC "-//W3C//DTD SVG 1.1//EN"
 "http://www.w3.org/Graphics/SVG/1.1/DTD/svg11.dtd">
<!-- Generated by graphviz version 7.1.0 (0)
 -->
<!-- Pages: 1 -->
<svg width="136pt" height="233pt"
 viewBox="0.00 0.00 136.00 232.91" xmlns="http://www.w3.org/2000/svg" xmlns:xlink="http://www.w3.org/1999/xlink">
<g id="graph0" class="graph" transform="scale(1 1) rotate(0) translate(4 228.91)">
<polygon fill="white" stroke="none" points="-4,4 -4,-228.91 132,-228.91 132,4 -4,4"/>
<g id="clust1" class="cluster">
<title>cluster200</title>
<path fill="none" stroke="black" d="M20,-8C20,-8 108,-8 108,-8 114,-8 120,-14 120,-20 120,-20 120,-109.95 120,-109.95 120,-115.95 114,-121.95 108,-121.95 108,-121.95 20,-121.95 20,-121.95 14,-121.95 8,-115.95 8,-109.95 8,-109.95 8,-20 8,-20 8,-14 14,-8 20,-8"/>
<text text-anchor="middle" x="101.5" y="-15.8" font-family="Times,serif" font-size="14.00">200</text>
</g>
<!-- theta -->
<g id="node1" class="node">
<title>theta</title>
<ellipse fill="none" stroke="black" cx="64" cy="-187.43" rx="30.31" ry="37.45"/>
<text text-anchor="middle" x="64" y="-198.73" font-family="Times,serif" font-size="14.00">theta</text>
<text text-anchor="middle" x="64" y="-183.73" font-family="Times,serif" font-size="14.00">~</text>
<text text-anchor="middle" x="64" y="-168.73" font-family="Times,serif" font-size="14.00">Beta</text>
</g>
<!-- y_obs -->
<g id="node2" class="node">
<title>y_obs</title>
<ellipse fill="lightgrey" stroke="black" cx="64" cy="-76.48" rx="48.17" ry="37.45"/>
<text text-anchor="middle" x="64" y="-87.78" font-family="Times,serif" font-size="14.00">y_obs</text>
<text text-anchor="middle" x="64" y="-72.78" font-family="Times,serif" font-size="14.00">~</text>
<text text-anchor="middle" x="64" y="-57.78" font-family="Times,serif" font-size="14.00">Binomial</text>
</g>
<!-- theta&#45;&gt;y_obs -->
<g id="edge1" class="edge">
<title>theta&#45;&gt;y_obs</title>
<path fill="none" stroke="black" d="M64,-149.54C64,-141.91 64,-133.76 64,-125.79"/>
<polygon fill="black" stroke="black" points="67.5,-125.84 64,-115.84 60.5,-125.84 67.5,-125.84"/>
</g>
</g>
</svg>
