<?xml version="1.0" encoding="UTF-8" standalone="no"?>
<!DOCTYPE svg PUBLIC "-//W3C//DTD SVG 1.1//EN"
 "http://www.w3.org/Graphics/SVG/1.1/DTD/svg11.dtd">
<!-- Generated by graphviz version 7.1.0 (0)
 -->
<!-- Pages: 1 -->
<svg width="623pt" height="261pt"
 viewBox="0.00 0.00 623.00 260.74" xmlns="http://www.w3.org/2000/svg" xmlns:xlink="http://www.w3.org/1999/xlink">
<g id="graph0" class="graph" transform="scale(1 1) rotate(0) translate(4 256.74)">
<polygon fill="white" stroke="none" points="-4,4 -4,-256.74 619,-256.74 619,4 -4,4"/>
<g id="clust1" class="cluster">
<title>cluster_litrprog</title>
<polygon fill="none" stroke="black" points="8,-16.87 8,-244.74 334,-244.74 334,-16.87 8,-16.87"/>
<text text-anchor="middle" x="171" y="-229.54" font-family="Times,serif" font-size="14.00">Literate programming</text>
</g>
<g id="clust2" class="cluster">
<title>cluster_tooling</title>
<polygon fill="none" stroke="black" points="342,-8 342,-244.74 607,-244.74 607,-8 342,-8"/>
<text text-anchor="middle" x="474.5" y="-229.54" font-family="Times,serif" font-size="14.00">Tooling</text>
</g>
<!-- jupyter -->
<g id="node1" class="node">
<title>jupyter</title>
<ellipse fill="none" stroke="black" cx="183" cy="-195.74" rx="36" ry="18"/>
<text text-anchor="middle" x="183" y="-192.04" font-family="Times,serif" font-size="14.00">jupyter</text>
</g>
<!-- papermill -->
<g id="node2" class="node">
<title>papermill</title>
<ellipse fill="none" stroke="black" cx="61" cy="-123.74" rx="44.69" ry="18"/>
<text text-anchor="middle" x="61" y="-120.04" font-family="Times,serif" font-size="14.00">papermill</text>
</g>
<!-- jupyter&#45;&gt;papermill -->
<g id="edge1" class="edge">
<title>jupyter&#45;&gt;papermill</title>
<path fill="none" stroke="black" d="M160.05,-181.57C141.98,-171.21 116.5,-156.58 95.9,-144.77"/>
<polygon fill="black" stroke="black" points="97.67,-141.75 87.26,-139.81 94.19,-147.82 97.67,-141.75"/>
</g>
<!-- quarto -->
<g id="node3" class="node">
<title>quarto</title>
<ellipse fill="none" stroke="black" cx="157" cy="-123.74" rx="33.29" ry="18"/>
<text text-anchor="middle" x="157" y="-120.04" font-family="Times,serif" font-size="14.00">quarto</text>
</g>
<!-- jupyter&#45;&gt;quarto -->
<g id="edge2" class="edge">
<title>jupyter&#45;&gt;quarto</title>
<path fill="none" stroke="black" d="M176.71,-177.8C173.86,-170.14 170.43,-160.9 167.24,-152.3"/>
<polygon fill="black" stroke="black" points="170.53,-151.1 163.76,-142.95 163.96,-153.54 170.53,-151.1"/>
</g>
<!-- nbdev -->
<g id="node4" class="node">
<title>nbdev</title>
<ellipse fill="none" stroke="black" cx="175" cy="-42.87" rx="32.49" ry="18"/>
<text text-anchor="middle" x="175" y="-39.17" font-family="Times,serif" font-size="14.00">nbdev</text>
</g>
<!-- jupyter&#45;&gt;nbdev -->
<g id="edge4" class="edge">
<title>jupyter&#45;&gt;nbdev</title>
<path fill="none" stroke="black" d="M189.49,-177.84C193.08,-167.58 197.17,-154.1 199,-141.74 201.34,-125.91 201.94,-121.47 199,-105.74 196.8,-93.97 192.43,-81.57 188.02,-70.98"/>
<polygon fill="black" stroke="black" points="191.33,-69.83 184.1,-62.09 184.93,-72.65 191.33,-69.83"/>
</g>
<!-- ipywidgets -->
<g id="node5" class="node">
<title>ipywidgets</title>
<ellipse fill="none" stroke="black" cx="277" cy="-123.74" rx="49.29" ry="18"/>
<text text-anchor="middle" x="277" y="-120.04" font-family="Times,serif" font-size="14.00">ipywidgets</text>
</g>
<!-- jupyter&#45;&gt;ipywidgets -->
<g id="edge5" class="edge">
<title>jupyter&#45;&gt;ipywidgets</title>
<path fill="none" stroke="black" d="M202.48,-180.24C215.27,-170.71 232.26,-158.06 246.79,-147.24"/>
<polygon fill="black" stroke="black" points="248.77,-150.13 254.7,-141.35 244.59,-144.51 248.77,-150.13"/>
</g>
<!-- quarto&#45;&gt;nbdev -->
<g id="edge3" class="edge">
<title>quarto&#45;&gt;nbdev</title>
<path fill="none" stroke="black" d="M160.91,-105.63C163.13,-95.88 165.98,-83.41 168.53,-72.23"/>
<polygon fill="black" stroke="black" points="171.89,-73.23 170.7,-62.7 165.07,-71.67 171.89,-73.23"/>
</g>
<!-- gradio -->
<g id="node6" class="node">
<title>gradio</title>
<ellipse fill="none" stroke="black" cx="277" cy="-42.87" rx="33.29" ry="18"/>
<text text-anchor="middle" x="277" y="-39.17" font-family="Times,serif" font-size="14.00">gradio</text>
</g>
<!-- ipywidgets&#45;&gt;gradio -->
<g id="edge6" class="edge">
<title>ipywidgets&#45;&gt;gradio</title>
<path fill="none" stroke="black" d="M277,-105.63C277,-95.98 277,-83.67 277,-72.59"/>
<polygon fill="black" stroke="black" points="280.5,-72.74 277,-62.74 273.5,-72.74 280.5,-72.74"/>
</g>
<!-- pip -->
<g id="node7" class="node">
<title>pip</title>
<ellipse fill="none" stroke="black" cx="525" cy="-195.74" rx="27" ry="18"/>
<text text-anchor="middle" x="525" y="-192.04" font-family="Times,serif" font-size="14.00">pip</text>
</g>
<!-- poetry -->
<g id="node8" class="node">
<title>poetry</title>
<ellipse fill="none" stroke="black" cx="484" cy="-123.74" rx="33.29" ry="18"/>
<text text-anchor="middle" x="484" y="-120.04" font-family="Times,serif" font-size="14.00">poetry</text>
</g>
<!-- pip&#45;&gt;poetry -->
<g id="edge7" class="edge">
<title>pip&#45;&gt;poetry</title>
<path fill="none" stroke="black" d="M515.49,-178.5C510.75,-170.41 504.89,-160.4 499.52,-151.23"/>
<polygon fill="black" stroke="black" points="502.58,-149.54 494.51,-142.68 496.54,-153.08 502.58,-149.54"/>
</g>
<!-- conda -->
<g id="node10" class="node">
<title>conda</title>
<ellipse fill="none" stroke="black" cx="567" cy="-123.74" rx="31.7" ry="18"/>
<text text-anchor="middle" x="567" y="-120.04" font-family="Times,serif" font-size="14.00">conda</text>
</g>
<!-- pip&#45;&gt;conda -->
<g id="edge9" class="edge">
<title>pip&#45;&gt;conda</title>
<path fill="none" stroke="black" d="M534.74,-178.5C539.72,-170.2 545.91,-159.89 551.52,-150.53"/>
<polygon fill="black" stroke="black" points="554.39,-152.56 556.53,-142.19 548.39,-148.96 554.39,-152.56"/>
</g>
<!-- docker -->
<g id="node9" class="node">
<title>docker</title>
<ellipse fill="none" stroke="black" cx="493" cy="-42.87" rx="34.39" ry="18"/>
<text text-anchor="middle" x="493" y="-39.17" font-family="Times,serif" font-size="14.00">docker</text>
</g>
<!-- poetry&#45;&gt;docker -->
<g id="edge8" class="edge">
<title>poetry&#45;&gt;docker</title>
<path fill="none" stroke="black" d="M485.95,-105.63C487.05,-95.98 488.46,-83.67 489.72,-72.59"/>
<polygon fill="black" stroke="black" points="493.19,-73.06 490.85,-62.73 486.24,-72.27 493.19,-73.06"/>
</g>
<!-- pypi -->
<g id="node14" class="node">
<title>pypi</title>
<ellipse fill="none" stroke="black" cx="572" cy="-42.87" rx="27" ry="18"/>
<text text-anchor="middle" x="572" y="-39.17" font-family="Times,serif" font-size="14.00">pypi</text>
</g>
<!-- poetry&#45;&gt;pypi -->
<g id="edge12" class="edge">
<title>poetry&#45;&gt;pypi</title>
<path fill="none" stroke="black" d="M500.55,-107.91C513.95,-95.89 533.01,-78.81 548.07,-65.31"/>
<polygon fill="black" stroke="black" points="550.17,-68.13 555.28,-58.85 545.5,-62.92 550.17,-68.13"/>
</g>
<!-- git -->
<g id="node11" class="node">
<title>git</title>
<ellipse fill="none" stroke="black" cx="395" cy="-195.74" rx="27" ry="18"/>
<text text-anchor="middle" x="395" y="-192.04" font-family="Times,serif" font-size="14.00">git</text>
</g>
<!-- github -->
<g id="node12" class="node">
<title>github</title>
<ellipse fill="none" stroke="black" cx="395" cy="-123.74" rx="33.29" ry="18"/>
<text text-anchor="middle" x="395" y="-120.04" font-family="Times,serif" font-size="14.00">github</text>
</g>
<!-- git&#45;&gt;github -->
<g id="edge10" class="edge">
<title>git&#45;&gt;github</title>
<path fill="none" stroke="black" d="M395,-177.44C395,-170.15 395,-161.47 395,-153.28"/>
<polygon fill="black" stroke="black" points="398.5,-153.36 395,-143.36 391.5,-153.36 398.5,-153.36"/>
</g>
<!-- github
(actions) -->
<g id="node13" class="node">
<title>github
(actions)</title>
<ellipse fill="none" stroke="black" cx="395" cy="-42.87" rx="45.01" ry="26.74"/>
<text text-anchor="middle" x="395" y="-46.67" font-family="Times,serif" font-size="14.00">github</text>
<text text-anchor="middle" x="395" y="-31.67" font-family="Times,serif" font-size="14.00">(actions)</text>
</g>
<!-- github&#45;&gt;github
(actions) -->
<g id="edge11" class="edge">
<title>github&#45;&gt;github
(actions)</title>
<path fill="none" stroke="black" d="M395,-105.63C395,-98.46 395,-89.83 395,-81.33"/>
<polygon fill="black" stroke="black" points="398.5,-81.47 395,-71.47 391.5,-81.47 398.5,-81.47"/>
</g>
</g>
</svg>
